/* XPM */
static char *_6d2c164da3942d7891d58beb3d35b1e[] = {
/* columns rows colors chars-per-pixel */
"64 64 69 1 ",
"  c black",
". c #434343",
"X c gray43",
"o c gray37",
"O c gray9",
"+ c gray34",
"@ c gray29",
"# c #2A2A2A",
"$ c #0B0B0B",
"% c #191919",
"& c gray28",
"* c #9B9B9B",
"= c #EEEEEE",
"- c #DDDDDD",
"; c #E6E6E6",
": c #D8D8D8",
"> c gray20",
", c gray68",
"< c #DADADA",
"1 c #EFEFEF",
"2 c #ACACAC",
"3 c gray32",
"4 c #DFDFDF",
"5 c white",
"6 c #393939",
"7 c gray99",
"8 c gainsboro",
"9 c gray95",
"0 c #A5A5A5",
"q c gray52",
"w c #070707",
"e c gray84",
"r c gray56",
"t c #252525",
"y c #ECECEC",
"u c gray8",
"i c gray66",
"p c gray25",
"a c gray1",
"s c #1D1D1D",
"d c gray47",
"f c #464646",
"g c gray65",
"h c #A0A0A0",
"j c gray70",
"k c gray18",
"l c #6D6D6D",
"z c gray75",
"x c #686868",
"c c gray51",
"v c gray5",
"b c gray62",
"n c gray85",
"m c #F6F6F6",
"M c gray83",
"N c gray58",
"B c gray63",
"V c #CACACA",
"C c #E7E7E7",
"Z c #4C4C4C",
"A c gray82",
"S c gray3",
"D c gray36",
"F c #767676",
"G c #505050",
"H c #2D2D2D",
"J c #0C0C0C",
"K c #090909",
"L c #4E4E4E",
/* pixels */
"                                                                ",
"                                                                ",
"                                                                ",
"                                                                ",
"                                                                ",
"                                                                ",
"                                                                ",
"                                                                ",
"                                                                ",
"                                                                ",
"                                                                ",
"                                                                ",
"                                                                ",
"                                                                ",
"                                                                ",
"                                                                ",
"                                                                ",
"                                                                ",
"                                                                ",
"                                                                ",
"                                                                ",
"                                                                ",
"                                                                ",
"                                                                ",
"                                                                ",
"                                                                ",
"           .XXXoO      +XXXXX@    #XXXXXX$   %XXXXXX&           ",
"           *=-;:>      ,<<<<12    3<<<<45%   67<<<890           ",
"           *qw@e>           r2         t5%   6y   ui0           ",
"           @pa@e>           r2         t5%   6y   ui0           ",
"              @e>           r2         t5%   sd   ui0           ",
"              @e>      fgggg:2     hgggj5%        ui0           ",
"              @e>      kllllz2     xlllc5%        ui0           ",
"              @e>           r2         t5%        ui0           ",
"              @e>           r2         t5%        ui0           ",
"              @e>           r2         t5%        ui0           ",
"            vbnmMN     BVVVVC2    ZVVVVA5%        ui0           ",
"            SDFFF+     oFFFFFG    HFFFFFFJ        KLZ           ",
"                                                                ",
"                                                                ",
"                                                                ",
"                                                                ",
"                                                                ",
"                                                                ",
"                                                                ",
"                                                                ",
"                                                                ",
"                                                                ",
"                                                                ",
"                                                                ",
"                                                                ",
"                                                                ",
"                                                                ",
"                                                                ",
"                                                                ",
"                                                                ",
"                                                                ",
"                                                                ",
"                                                                ",
"                                                                ",
"                                                                ",
"                                                                ",
"                                                                ",
"                                                                "
};
