/* XPM */
static char *_8822c7a941d4f33c8f5c3fd63d17748ZJnaM9QkhA7kOlUl[] = {
/* columns g_rows colors chars-per-pixel */
"64 64 216 2 ",
"   c #0D0A09",
".  c #1D150C",
"X  c #1B1B1B",
"o  c #151617",
"O  c #0A0D15",
"+  c #24180D",
"@  c #241D15",
"#  c #16290B",
"$  c #152119",
"%  c #1A3513",
"&  c #19300A",
"*  c #2D231C",
"=  c #252819",
"-  c #372A15",
";  c #263C15",
":  c #3C3115",
">  c #303310",
",  c #23220C",
"<  c #05092D",
"1  c #0A1528",
"2  c #181828",
"3  c #0E0F38",
"4  c #141439",
"5  c #0F203E",
"6  c #252524",
"7  c #372E25",
"8  c #35372B",
"9  c #3A3938",
"0  c #462E18",
"q  c #423117",
"w  c #4B361A",
"e  c #4E381B",
"r  c #433918",
"t  c #543B1D",
"y  c #56391C",
"u  c #473527",
"i  c #5C3D21",
"p  c #553A26",
"a  c #443C36",
"s  c #503E31",
"d  c #623D26",
"f  c #23480F",
"g  c #22440D",
"h  c #26510F",
"j  c #2F5116",
"k  c #2F6316",
"l  c #366913",
"z  c #377615",
"x  c #1E402C",
"c  c #28402C",
"v  c #2B4124",
"b  c #314F22",
"n  c #284033",
"m  c #335D28",
"M  c #4A441A",
"N  c #464D1A",
"B  c #56491E",
"V  c #455B17",
"C  c #54581E",
"Z  c #4D651B",
"A  c #476519",
"S  c #52641D",
"D  c #4B781B",
"F  c #527C1D",
"G  c #5E4021",
"H  c #5E412E",
"J  c #654424",
"K  c #6A4625",
"L  c #694926",
"P  c #744D2B",
"I  c #794E2C",
"U  c #754A25",
"Y  c #675727",
"T  c #7C522D",
"R  c #684C38",
"E  c #794F32",
"W  c #7A5236",
"Q  c #4A6E29",
"!  c #78662B",
"~  c #6C7026",
"^  c #040547",
"/  c #010153",
"(  c #060C51",
")  c #020262",
"_  c #08086C",
"`  c #010172",
"'  c #02027B",
"]  c #5E3F54",
"[  c #484946",
"{  c #5C5248",
"}  c #595553",
"|  c #745947",
" . c #645B53",
".. c #68514A",
"X. c #5C6D52",
"o. c #7A6858",
"O. c #64615F",
"+. c #66436D",
"@. c #646463",
"#. c #6A6A6A",
"$. c #787776",
"%. c #8C4805",
"&. c #A4540A",
"*. c #83532E",
"=. c #88552F",
"-. c #855531",
";. c #8C5A34",
":. c #885936",
">. c #945D36",
",. c #955E39",
"<. c #965C2D",
"1. c #94623A",
"2. c #9B623A",
"3. c #976037",
"4. c #896F32",
"5. c #A1653C",
"6. c #A5693D",
"7. c #A86A3F",
"8. c #A56224",
"9. c #885D41",
"0. c #8D6245",
"q. c #9D6A4B",
"w. c #AC6C41",
"e. c #A36F4D",
"r. c #B26E43",
"t. c #AD7249",
"y. c #B57144",
"u. c #BB7446",
"i. c #B37449",
"p. c #BC7648",
"a. c #B8794D",
"s. c #A57557",
"d. c #907A69",
"f. c #B97973",
"g. c #C17749",
"h. c #C57A4B",
"j. c #CB7D4D",
"k. c #C17747",
"l. c #C27C51",
"z. c #CC7F51",
"x. c #458D19",
"c. c #518C1D",
"v. c #4E971C",
"b. c #569A1F",
"n. c #4DA21D",
"m. c #4FA81C",
"M. c #58BE1F",
"N. c #55B71E",
"B. c #4F9827",
"V. c #579321",
"C. c #77902B",
"Z. c #6B8626",
"A. c #58A724",
"S. c #5CB322",
"D. c #5DBD23",
"F. c #7EA62F",
"G. c #65BA26",
"H. c #79B82C",
"J. c #64A931",
"K. c #5DC523",
"L. c #5FCC23",
"P. c #62CD24",
"I. c #68C626",
"U. c #72C42A",
"Y. c #78CA2D",
"T. c #63D524",
"R. c #6BD427",
"E. c #65DA24",
"W. c #6BD629",
"Q. c #79D32E",
"!. c #7ED131",
"~. c #6DD335",
"^. c #6DAD49",
"/. c #75CE43",
"(. c #8C8634",
"). c #A2883D",
"_. c #98A539",
"`. c #80B736",
"'. c #A5A83E",
"]. c #B48F45",
"[. c #AEA044",
"{. c #978A7A",
"}. c #AC8A6C",
"|. c #CC8353",
" X c #CC875A",
".X c #D38352",
"XX c #DA8653",
"oX c #DB8956",
"OX c #DC8C5A",
"+X c #D48B5D",
"@X c #CF9B4F",
"#X c #E28D59",
"$X c #E6915D",
"%X c #EA935D",
"&X c #F1955D",
"*X c #CDB156",
"=X c #C9A24D",
"-X c #DC9262",
";X c #CA8D61",
":X c #E19363",
">X c #EA9967",
",X c #F49B65",
"<X c #EA9F71",
"1X c #F4A777",
"2X c #ECA173",
"3X c #010189",
"4X c #010194",
"5X c #0000A3",
"6X c #674780",
"7X c #A87695",
"8X c #868585",
"9X c #979797",
"0X c #949E8E",
"qX c #9AA991",
"wX c #A7A7A5",
"eX c #F7B187",
/* pixels */
"E.E.E.E.E.E.E.E.E.E.E.E.E.E.E.E.E.E.E.E.E.E.E.E.E.E.E.E.E.E.E.E.E.E.E.E.E.E.E.E.E.E.E.E.E.E.E.E.E.E.E.E.E.E.E.E.E.E.E.E.E.E.E.E.",
"E.E.E.E.E.E.E.E.E.E.E.E.E.E.E.E.E.E.E.E.E.E.E.E.E.E.E.E.E.E.E.E.E.E.E.E.E.E.E.E.E.E.E.E.E.E.E.E.E.E.E.E.E.E.E.E.E.E.E.E.E.E.E.E.",
"E.E.E.E.E.E.E.E.E.E.E.E.E.E.E.E.E.E.E.E.E.E.E.E.E.E.E.E.E.E.E.E.E.E.E.E.E.E.E.E.E.E.E.E.E.E.E.E.E.E.E.E.E.E.E.E.E.E.E.E.E.E.E.E.",
"E.E.E.E.E.E.E.E.E.E.E.E.E.E.E.E.E.E.E.E.E.E.E.E.E.E.E.E.E.E.E.E.E.E.E.E.E.E.E.E.E.E.E.E.E.E.E.E.E.E.E.E.E.E.E.E.E.E.E.E.E.E.E.E.",
"E.E.E.E.E.E.E.E.E.E.E.E.E.E.E.E.E.E.E.E.E.E.E.E.E.E.E.E.E.E.E.E.E.E.E.E.E.E.E.E.E.E.E.E.E.E.E.E.E.E.E.E.E.E.E.E.E.E.E.E.E.E.E.E.",
"E.E.E.E.E.E.E.E.E.E.E.E.E.E.E.E.E.E.E.E.E.E.E.E.E.E.E.E.E.E.E.E.E.E.E.E.E.E.E.E.E.E.E.E.E.E.E.E.E.E.E.E.E.E.E.E.E.E.E.E.E.E.E.E.",
"E.E.E.E.E.E.E.E.E.E.E.E.E.E.E.E.E.E.E.E.E.E.E.E.E.E.E.E.E.E.E.E.E.E.E.E.E.E.E.E.E.E.E.E.E.E.E.E.E.E.E.E.E.E.E.E.E.E.E.E.E.E.E.E.",
"E.E.E.E.E.E.E.E.E.E.E.E.E.E.E.E.E.E.E.E.E.E.E.E.E.E.E.E.E.E.E.E.E.E.E.E.E.E.E.E.E.E.E.E.E.E.E.E.E.E.E.E.E.E.E.E.E.E.E.E.E.E.E.E.",
"E.E.E.E.E.E.E.E.E.E.E.E.E.E.E.E.E.E.E.E.E.E.E.E.E.E.E.E.E.E.E.E.E.E.E.E.E.E.E.E.E.E.E.E.E.E.E.E.E.E.E.E.E.E.E.E.E.E.E.E.E.E.E.E.",
"E.E.E.E.E.E.E.E.E.E.E.E.E.E.E.E.E.E.E.E.E.E.E.E.E.E.E.E.E.E.E.E.E.E.E.E.E.E.E.E.E.E.E.E.E.E.E.E.E.E.E.E.E.E.E.E.E.E.E.E.E.E.E.E.",
"E.E.E.E.E.E.E.E.E.E.E.E.E.E.E.E.E.E.E.E.E.E.E.E.E.E.E.E.E.E.E.E.E.T.E.E.E.E.E.E.E.E.E.E.E.E.E.E.E.E.E.E.E.E.E.E.E.E.E.E.E.E.E.E.",
"E.E.E.E.E.E.E.E.E.E.E.E.E.E.E.E.E.E.E.E.E.E.E.E.E.E.E.E.E./.wX9X8X@.[ A.E.E.E.E.E.E.E.E.E.E.E.E.E.E.E.E.E.E.E.E.E.E.E.E.E.E.E.E.",
"E.E.E.E.E.E.E.E.E.E.E.E.E.E.E.E.E.E.E.E.E.E.E.E.E.E.E.E.~.qX9X#.@.[ 9 8 D.E.E.E.E.E.E.E.E.E.E.E.E.E.E.E.E.E.E.E.E.E.E.E.E.E.E.E.",
"E.E.E.E.E.E.E.E.E.E.E.E.E.E.E.E.E.E.E.E.E.E.E.E.E.E.E.T.J.qX9X8X6X@.} [ B.T.E.E.E.E.E.E.E.E.E.E.E.E.E.E.E.E.E.E.E.E.E.E.E.E.E.E.",
"E.E.E.E.E.E.E.E.E.E.E.E.E.E.E.E.E.E.E.E.E.E.E.E.E.E.E.P.X.$.{.{.{.o.{ a 8 D.E.E.E.E.E.E.E.E.E.E.E.E.E.E.E.E.E.E.E.E.E.E.E.E.E.E.",
"E.E.E.E.E.E.E.E.E.E.E.E.E.E.E.E.E.E.E.E.E.E.E.E.E.E.E.^.} * ..6X].+.} @ 6 z P.E.E.E.E.E.E.E.E.E.E.E.E.E.E.E.E.E.E.E.E.E.E.E.E.E.",
"E.E.E.E.E.E.E.E.E.E.E.E.E.E.E.E.E.E.E.E.E.E.E.E.E.E.P.Q 9 u f.7X|.7Xf.J = v K.E.E.E.E.E.E.E.E.E.E.E.E.E.E.E.E.E.E.E.E.E.E.E.E.E.",
"E.E.E.E.E.E.E.E.E.E.E.E.E.E.E.E.E.E.E.E.E.E.E.E.E.E.T.n.v J OX<X|.<X-XP : B.T.E.E.E.E.E.E.E.E.E.E.E.E.E.E.E.E.E.E.E.E.E.E.E.E.E.",
"E.E.E.E.E.E.E.E.E.E.E.E.E.E.E.E.E.E.E.E.E.E.E.E.E.E.E.T.A.B w.i.T t.w.G n.T.E.E.E.E.E.E.E.E.E.E.E.E.E.E.E.E.E.E.E.E.E.E.E.E.E.E.",
"E.E.E.E.E.E.E.E.E.E.E.E.E.E.E.E.E.E.E.E.E.E.E.E.E.E.E.E.m.> >.|.;X|.W , n.T.E.E.E.E.E.E.E.E.E.E.E.E.E.E.E.E.E.E.E.E.E.E.E.E.E.E.",
"E.E.E.E.E.E.E.E.E.E.E.E.E.E.E.E.E.E.E.E.E.E.E.E.E.R.Y.G.; 6 * I w.2.u X & m.I.R.E.E.E.E.E.E.E.E.E.E.E.E.E.E.E.E.E.E.E.E.E.E.E.E.",
"E.E.E.E.E.E.E.E.E.E.E.E.E.E.E.E.E.E.E.E.E.E.E.E.Y.[.-Xo.9 wX@.+ P 0 } 9XH ;.6.(.U.E.E.E.E.E.E.E.E.E.E.E.E.E.E.E.E.E.E.E.E.E.E.E.",
"E.E.E.E.E.E.E.E.E.E.E.E.E.E.E.E.E.E.E.E.E.E.E.!.*X,X>Xs.} o.@.@ + + O.d.h.XXXXk.).H.E.E.E.E.E.E.E.E.E.E.E.E.E.E.E.E.E.E.E.E.E.E.",
"E.E.E.E.E.E.E.E.E.E.E.E.E.E.E.E.E.E.E.E.E.E.Q.*X:Xj.XXoXo.R p e.2.,.;.p.&X&XXX.X.X_.E.E.E.E.E.E.E.E.E.E.E.E.E.E.E.E.E.E.E.E.E.E.",
"E.E.E.E.E.E.E.E.E.E.E.E.E.E.E.E.E.E.E.E.E.Q.*X%Xz.5.,..Xe.{ 9.,Xj.j.XXh.k.7.k.7.z.@X`.R.E.E.E.E.E.E.E.E.E.E.E.E.E.E.E.E.E.E.E.E.",
"E.E.E.E.E.E.E.E.E.E.E.E.E.E.E.E.E.E.E.E.W.*X%Xj.2.J t 2.h.0.a q.2.y.k.h.h.I <.3.g.#X).Y.E.E.E.E.E.E.E.E.E.E.E.E.E.E.E.E.E.E.E.E.",
"E.E.E.E.E.E.E.E.E.E.E.E.E.E.E.E.E.E.E.E.!.oX6.=.Y : F ! 5.h.,.8 a 9.w.5.2.t w t w.z.z.4.I.E.E.E.E.E.E.E.E.E.E.E.E.E.E.E.E.E.E.E.",
"E.E.E.E.E.E.E.E.E.E.E.E.E.E.E.E.E.E.E.E.@X,X|.T F M.L.~ T r.h.W @ 8 W W J K q w ,.w.j.r.H.E.E.E.E.E.E.E.E.E.E.E.E.E.E.E.E.E.E.E.",
"E.E.E.E.E.E.E.E.E.E.E.E.E.E.E.E.E.E.E.E.#X,Xi.P F P.E.D.Y 2.a.2.d . 6 7 P K : M B U w.h.! E.E.E.E.E.E.E.E.E.E.E.E.E.E.E.E.E.E.E.",
"E.E.E.E.E.E.E.E.E.E.E.E.E.E.E.E.E.E.E.E.w.>Xa.3.t v.E.n.N W :.0.o.| s o @ - ; v.N -.g.j.W E.E.E.E.E.E.E.E.E.E.E.E.E.E.E.E.E.E.E.",
"E.E.E.E.E.E.E.E.E.E.E.E.E.E.E.E.E.E.E.E.(.w.:.1.E ~ F.Y u 7 8 @.wX7X[ 6 6 o & K.b.J 2.a.~ W.E.E.E.E.E.E.E.E.E.E.E.E.E.E.E.E.E.E.",
"E.E.E.E.E.E.E.E.E.E.E.E.E.E.E.E.E.E.E.E.P.P |.:Xt.R 1.|.7.P u | } R R J p + > b.b.G w.w.Y.E.E.E.E.E.E.E.E.E.E.E.E.E.E.E.E.E.E.E.",
"E.E.E.E.E.E.E.E.E.E.E.E.E.E.E.E.E.E.E.E.R.Z.i.oXR  .3.<.r.y.T *.: i y.g.6.d y S v.q K =.I.E.E.E.E.E.E.E.E.E.E.E.E.E.E.E.E.E.E.E.",
"E.E.E.E.E.E.E.E.E.E.E.E.E.E.E.E.E.E.E.E.T.R.C.5.R O.}.8.U =.>.I 0 i g.j.r.;.i S `.i.2.P G.E.E.E.E.E.E.E.E.E.E.E.E.E.E.E.E.E.E.E.",
"E.E.E.E.E.E.E.E.E.E.E.E.E.E.E.E.E.E.E.E.E.E.P.G.S.Q I &.&.y q e - y u.j.y.2.K S J.;.p.C.T.E.E.E.E.E.E.E.E.E.E.E.E.E.E.E.E.E.E.E.",
"E.E.E.E.E.E.E.E.E.E.E.E.E.E.E.E.E.E.E.E.E.E.E.E.E.D.Z %.%.w w - . y y.j.r.3.K M ~ p._.R.E.E.E.E.E.E.E.E.E.E.E.E.E.E.E.E.E.E.E.E.",
"E.E.E.E.E.E.E.E.E.E.E.E.E.E.E.E.E.E.E.E.E.E.E.E.E.E.K.N y w t e - - 0 w q : - l T.R.E.E.E.E.E.E.E.E.E.E.E.E.E.E.E.E.E.E.E.E.E.E.",
"E.E.E.E.E.E.E.E.E.E.E.E.E.E.E.E.E.E.E.E.E.E.E.E.E.E.Q.).w.w.,.I w G =.=.T K y V E.E.E.E.E.E.E.E.E.E.E.E.E.E.E.E.E.E.E.E.E.E.E.E.",
"E.E.E.E.E.E.E.E.E.E.E.E.E.E.E.E.E.E.E.E.E.E.E.E.E.R.'.$X,X$Xr.;.B B y.z.r.,.d V E.E.E.E.E.E.E.E.E.E.E.E.E.E.E.E.E.E.E.E.E.E.E.E.",
"E.E.E.E.E.E.E.E.E.E.E.E.E.E.E.E.E.E.E.E.E.E.E.E.E.Y.=X&X,X#Xu.I D c.,.#Xz.5.I A E.E.E.E.E.E.E.E.E.E.E.E.E.E.E.E.E.E.E.E.E.E.E.E.",
"E.E.E.E.E.E.E.E.E.E.E.E.E.E.E.E.E.E.E.E.E.E.E.E.E._.oX1X#Xr.=.t D D P $X|.2.J A E.E.E.E.E.E.E.E.E.E.E.E.E.E.E.E.E.E.E.E.E.E.E.E.",
"E.E.E.E.E.E.E.E.E.E.E.E.E.E.E.E.E.E.E.E.E.E.E.E.H.=X2XeX:X2.t N S.Z.;.OX$Xw.K Z T.E.E.E.E.E.E.E.E.E.E.E.E.E.E.E.E.E.E.E.E.E.E.E.",
"E.E.E.E.E.E.E.E.E.E.E.E.E.E.E.E.E.E.E.E.E.E.E.E._.OX1X+Xl.l.J D R.c.J +X1X+X2.M c.E.E.E.E.E.E.E.E.E.E.E.E.E.E.E.E.E.E.E.E.E.E.E.",
"E.E.E.E.E.E.E.E.E.E.E.E.E.E.E.E.E.E.E.E.E.E.E.E._.#X,XXX,.E C G.E.M.S t. Xi.;.w l E.E.E.E.E.E.E.E.E.E.E.E.E.E.E.E.E.E.E.E.E.E.E.",
"E.E.E.E.E.E.E.E.E.E.E.E.E.E.E.E.E.E.E.E.E.E.E.E._.:X>Xj.2.J V E.E.c.L p.OXp.;.w A T.E.E.E.E.E.E.E.E.E.E.E.E.E.E.E.E.E.E.E.E.E.E.",
"E.E.E.E.E.E.E.E.E.E.E.E.E.E.E.E.E.E.E.E.E.E.E.E.C.,.,.I t > A E.E.c.r I ,.T G : D E.E.E.E.E.E.E.E.E.E.E.E.E.E.E.E.E.E.E.E.E.E.E.",
"E.E.E.E.E.E.E.E.E.E.E.E.E.E.E.E.E.E.E.E.E.E.E.E.l O O     # L.T.E.T.h         g L.E.E.E.E.E.E.E.E.E.E.E.E.E.E.E.E.E.E.E.E.E.E.E.",
"E.E.E.E.E.E.E.E.E.E.E.E.E.E.E.E.E.E.E.E.E.E.E.E.k / ) 2 o # T.E.E.E.h 4 4 6 o f E.E.E.E.E.E.E.E.E.E.E.E.E.E.E.E.E.E.E.E.E.E.E.E.",
"E.E.E.E.E.E.E.E.E.E.E.E.E.E.E.E.E.E.E.E.E.E.E.N.x ` ` 3 o k L.E.E.E.h ) ' 4 2 f E.E.E.E.E.E.E.E.E.E.E.E.E.E.E.E.E.E.E.E.E.E.E.E.",
"E.E.E.E.E.E.E.E.E.E.E.E.E.E.E.E.E.E.E.E.E.E.E.z / 4X_ < # D.E.E.E.E.x.1 3X( 1 f E.E.E.E.E.E.E.E.E.E.E.E.E.E.E.E.E.E.E.E.E.E.E.E.",
"E.E.E.E.E.E.E.E.E.E.E.E.E.E.E.E.E.E.E.E.E.E.E.z / ` 4 $ z L.E.E.E.E.T.% 3X/ $ x.E.E.E.E.E.E.E.E.E.E.E.E.E.E.E.E.E.E.E.E.E.E.E.E.",
"E.E.E.E.E.E.E.E.E.E.E.E.E.E.E.E.E.E.E.E.E.T.n.5 5X5X) 3 f K.E.E.E.E.z 3 4X5X( k E.E.E.E.E.E.E.E.E.E.E.E.E.E.E.E.E.E.E.E.E.E.E.E.",
"E.E.E.E.E.E.E.E.E.E.E.E.E.E.E.E.E.E.E.E.E.N.$ ) 3X` ^ 3 & M.E.E.E.E.k < ) 4X) 1 l E.E.E.E.E.E.E.E.E.E.E.E.E.E.E.E.E.E.E.E.E.E.E.",
"E.E.E.E.E.E.E.E.E.E.E.E.E.E.E.E.E.E.E.E.E.N.% n n c v b n.T.E.E.E.E.D.m x 8 c ; l E.E.E.E.E.E.E.E.E.E.E.E.E.E.E.E.E.E.E.E.E.E.E.",
"E.E.E.E.E.E.E.E.E.E.E.E.E.E.E.E.E.E.E.E.E.T.K.K.P.K.K.P.T.E.E.E.E.E.T.L.L.L.K.K.L.E.E.E.E.E.E.E.E.E.E.E.E.E.E.E.E.E.E.E.E.E.E.E.",
"E.E.E.E.E.E.E.E.E.E.E.E.E.E.E.E.E.E.E.E.E.E.E.E.E.E.E.E.E.E.E.E.E.E.E.E.E.E.E.E.E.E.E.E.E.E.E.E.E.E.E.E.E.E.E.E.E.E.E.E.E.E.E.E.",
"E.E.E.E.E.E.E.E.E.E.E.E.E.E.E.E.E.E.E.E.E.E.E.E.E.E.E.E.E.E.E.E.E.E.E.E.E.E.E.E.E.E.E.E.E.E.E.E.E.E.E.E.E.E.E.E.E.E.E.E.E.E.E.E.",
"E.E.E.E.E.E.E.E.E.E.E.E.E.E.E.E.E.E.E.E.E.E.E.E.E.E.E.E.E.E.E.E.E.E.E.E.E.E.E.E.E.E.E.E.E.E.E.E.E.E.E.E.E.E.E.E.E.E.E.E.E.E.E.E.",
"E.E.E.E.E.E.E.E.E.E.E.E.E.E.E.E.E.E.E.E.E.E.E.E.E.E.E.E.E.E.E.E.E.E.E.E.E.E.E.E.E.E.E.E.E.E.E.E.E.E.E.E.E.E.E.E.E.E.E.E.E.E.E.E.",
"E.E.E.E.E.E.E.E.E.E.E.E.E.E.E.E.E.E.E.E.E.E.E.E.E.E.E.E.E.E.E.E.E.E.E.E.E.E.E.E.E.E.E.E.E.E.E.E.E.E.E.E.E.E.E.E.E.E.E.E.E.E.E.E.",
"E.E.E.E.E.E.E.E.E.E.E.E.E.E.E.E.E.E.E.E.E.E.E.E.E.E.E.E.E.E.E.E.E.E.E.E.E.E.E.E.E.E.E.E.E.E.E.E.E.E.E.E.E.E.E.E.E.E.E.E.E.E.E.E.",
"E.E.E.E.E.E.E.E.E.E.E.E.E.E.E.E.E.E.E.E.E.E.E.E.E.E.E.E.E.E.E.E.E.E.E.E.E.E.E.E.E.E.E.E.E.E.E.E.E.E.E.E.E.E.E.E.E.E.E.E.E.E.E.E.",
"E.E.E.E.E.E.E.E.E.E.E.E.E.E.E.E.E.E.E.E.E.E.E.E.E.E.E.E.E.E.E.E.E.E.E.E.E.E.E.E.E.E.E.E.E.E.E.E.E.E.E.E.E.E.E.E.E.E.E.E.E.E.E.E.",
"E.E.E.E.E.E.E.E.E.E.E.E.E.E.E.E.E.E.E.E.E.E.E.E.E.E.E.E.E.E.E.E.E.E.E.E.E.E.E.E.E.E.E.E.E.E.E.E.E.E.E.E.E.E.E.E.E.E.E.E.E.E.E.E."
};
